<?xml version="1.0" ?><!DOCTYPE svg  PUBLIC '-//W3C//DTD SVG 1.1//EN'  'http://www.w3.org/Graphics/SVG/1.1/DTD/svg11.dtd'><svg enable-background="new 0 0 512 512" id="Layer_1" version="1.1" viewBox="0 0 512 512" xml:space="preserve" xmlns="http://www.w3.org/2000/svg" xmlns:xlink="http://www.w3.org/1999/xlink"><g><path d="M475.1,443.6c0,35.1-23.7,62.7-56.8,67.2c-32.6,4.4-65.1-19.2-71.2-52c-2.1-10.9-2.1-21.9,1.2-32.6   c0.9-3,0-4.1-2.5-5.3c-56-26.5-111.9-53.1-167.9-79.6c-8.4-4-16.9-7.9-25.2-12.1c-2.8-1.4-5.1-1.5-8-0.1   c-33.3,16.4-69.7,5.4-87.1-27.6c-21.9-41.7,4-91.3,49.4-97.2c19.7-2.6,37.2,3.5,51.8,17.2c2.2,2.1,3.4,2.4,6.1,0.4   c39.9-30.6,79.8-61.1,119.8-91.7c17.3-13.2,34.7-26.5,52.1-39.7c2.5-1.9,3.4-3.8,2.7-7.2c-7.2-37.2,17.6-73,54.9-78.1   c36.8-5,65.9,20.3,72.4,52.9c7.4,36.7-17,72.7-53.9,78.5c-21,3.3-39.6-2.8-54.7-18c-2.9-2.9-4.7-3-7.9-0.6   c-56.5,43.4-113.2,86.6-169.8,129.8c-2.5,1.9-3.5,3.6-2.7,7c4.1,16.9,1.6,33.1-6.8,48.2c-1.4,2.6-0.7,3.3,1.6,4.3   c47.8,22.7,95.7,45.4,143.5,68.2c14.6,6.9,29.2,13.8,43.7,20.9c3.1,1.5,4.9,1.1,7.4-1.2c35.6-32.9,93.6-15.6,105.8,31.5   C474.5,432.8,475.4,438.7,475.1,443.6z" fill="#A7A7A7"/></g></svg>